<svg width="16" height="16" viewBox="0 0 16 16" fill="none" xmlns="http://www.w3.org/2000/svg">
<path d="M5 15C5.55228 15 6 14.5523 6 14C6 13.4477 5.55228 13 5 13C4.44772 13 4 13.4477 4 14C4 14.5523 4.44772 15 5 15Z" fill="#272424"/>
<path d="M12 15C12.5523 15 13 14.5523 13 14C13 13.4477 12.5523 13 12 13C11.4477 13 11 13.4477 11 14C11 14.5523 11.4477 15 12 15Z" fill="#272424"/>
<path d="M2.49 1.402C2.46735 1.28869 2.40616 1.18673 2.31683 1.11344C2.2275 1.04016 2.11555 1.00007 2 1H0V2H1.59L3.51 11.598C3.53265 11.7113 3.59384 11.8133 3.68317 11.8866C3.7725 11.9598 3.88445 11.9999 4 12H13V11H4.41L4.01 9H13C13.1137 8.99998 13.2241 8.96118 13.3128 8.89001C13.4015 8.81883 13.4633 8.71953 13.488 8.6085L14.622 3.5H13.5985L12.599 8H3.81L2.49 1.402Z" fill="#272424"/>
<path d="M9 3V1H8V3H6V4H8V6H9V4H11V3H9Z" fill="#272424"/>
</svg>
